<svg xmlns="http://www.w3.org/2000/svg" viewBox="0 0 256 256" width="256" height="256">
  <defs>
    <linearGradient id="bg" x1="0%" y1="0%" x2="100%" y2="100%">
      <stop offset="0%" style="stop-color:#3A78A6"/>
      <stop offset="100%" style="stop-color:#234864"/>
    </linearGradient>
  </defs>
  <rect width="256" height="256" rx="48" fill="url(#bg)"/>
  <!-- Bug/issue icon -->
  <circle cx="128" cy="108" r="44" fill="none" stroke="white" stroke-width="8"/>
  <line x1="128" y1="64" x2="128" y2="44" stroke="white" stroke-width="8" stroke-linecap="round"/>
  <line x1="108" y1="70" x2="94" y2="54" stroke="white" stroke-width="8" stroke-linecap="round"/>
  <line x1="148" y1="70" x2="162" y2="54" stroke="white" stroke-width="8" stroke-linecap="round"/>
  <!-- Antennae dots -->
  <circle cx="128" cy="40" r="5" fill="white"/>
  <circle cx="90" cy="50" r="5" fill="white"/>
  <circle cx="166" cy="50" r="5" fill="white"/>
  <!-- Body lines -->
  <line x1="84" y1="100" x2="68" y2="92" stroke="white" stroke-width="8" stroke-linecap="round"/>
  <line x1="172" y1="100" x2="188" y2="92" stroke="white" stroke-width="8" stroke-linecap="round"/>
  <line x1="84" y1="118" x2="68" y2="118" stroke="white" stroke-width="8" stroke-linecap="round"/>
  <line x1="172" y1="118" x2="188" y2="118" stroke="white" stroke-width="8" stroke-linecap="round"/>
  <!-- Checkmark -->
  <circle cx="128" cy="108" r="20" fill="white" opacity="0.2"/>
  <polyline points="116,108 125,117 142,98" fill="none" stroke="white" stroke-width="7" stroke-linecap="round" stroke-linejoin="round"/>
  <!-- Text -->
  <text x="128" y="186" text-anchor="middle" font-family="system-ui, sans-serif" font-weight="700" font-size="24" fill="white" letter-spacing="1">ISSUES</text>
  <text x="128" y="210" text-anchor="middle" font-family="system-ui, sans-serif" font-weight="400" font-size="16" fill="white" opacity="0.7">portefolje</text>
</svg>
